<?xml version="1.0" standalone="no"?>
<!DOCTYPE svg PUBLIC "-//W3C//DTD SVG 1.1//EN" "http://www.w3.org/Graphics/SVG/1.1/DTD/svg11.dtd" >
<svg xmlns="http://www.w3.org/2000/svg">
<metadata>Generated by IcoMoon</metadata>
<defs>
<font id="icomoon" horiz-adv-x="1024">
<font-face units-per-em="1024" ascent="960" descent="-64" />
<missing-glyph horiz-adv-x="1024" />
<glyph unicode="&#x20;" horiz-adv-x="512" d="" />
<glyph unicode="&#xe900;" glyph-name="arrow-down" horiz-adv-x="745" d="M318.929 960h106.868v-852.34l243.153 203.869 75.776-63.488-372.364-312.041-372.364 312.041 75.776 63.488 243.153-203.869z" />
<glyph unicode="&#xe901;" glyph-name="arrow-down-up" horiz-adv-x="1303" d="M318.929 960h106.868v-852.34l243.153 203.869 75.776-63.488-372.364-312.041-372.364 312.041 75.776 63.488 243.153-203.869zM877.475-64h106.868v852.34l243.153-203.869 75.776 63.488-372.364 312.041-372.364-312.041 75.776-63.488 243.153 203.869z" />
<glyph unicode="&#xe902;" glyph-name="arrow-goes-down" horiz-adv-x="1593" d="M1194.667-64v157.582h127.431l-565.476 559.218-278.756-275.684-477.867 472.519 111.502 110.364 366.364-362.382 278.756 275.684 676.978-669.468v126.066h159.289v-393.899z" />
<glyph unicode="&#xe903;" glyph-name="arrow-goes-up" horiz-adv-x="1593" d="M1194.667 960v-157.582h127.431l-565.476-559.218-278.756 275.684-477.867-472.519 111.502-110.364 366.364 362.382 278.756-275.684 676.978 669.468v-126.066h159.289v393.899z" />
<glyph unicode="&#xe904;" glyph-name="arrow-up" horiz-adv-x="745" d="M318.929-64h106.868v852.34l243.153-203.869 75.776 63.488-372.364 312.041-372.364-312.041 75.776-63.488 243.153 203.869z" />
<glyph unicode="&#xe905;" glyph-name="bell" horiz-adv-x="967" d="M103.083 949.589c11.153 6.548 24.563 10.415 38.877 10.415 28.623 0 53.635-15.464 67.136-38.493l0.199-0.366c10.183-17.636 9.216-38.343 9.216-38.343-0.455-9.671 6.656-15.019 15.872-11.833 0 0 54.5 18.887 86.471 21.675 215.438 18.773 316.985-224.597 450.844-344.292 49.095-43.861 118.215-47.957 118.215-47.957 29.127-1.707 61.44-25.372 71.68-52.622l1.82-4.779c10.354-27.307-1.877-61.497-27.136-76.060l-734.151-423.14c-25.259-14.62-61.042-8.021-79.531 14.507l-3.243 3.982c-18.489 22.585-22.869 62.293-9.785 88.348 0 0 31.004 61.781 17.522 126.18l0.114 0.569c-40.732 177.436-212.082 389.291-74.923 566.727 17.18 22.187 53.305 52.736 53.305 52.736 7.452 6.258 6.485 15.076-2.219 19.513 0 0-18.489 9.5-28.729 27.193-6.538 11.126-10.4 24.507-10.4 38.79 0 28.58 15.462 53.548 38.477 66.996l0.367 0.198zM704.74 167.822c5-13.491 7.893-29.075 7.893-45.335 0-49.431-26.736-92.617-66.536-115.886l-0.635-0.343c-19.262-11.265-42.41-17.916-67.112-17.916-41.039 0-77.789 18.358-102.488 47.311l-0.156 0.188z" />
<glyph unicode="&#xe906;" glyph-name="chevrone-down" horiz-adv-x="1843" d="M928.768-63.795c31.447 1.941 59.536 14.921 80.746 35.073l-0.055-0.052 784.794 747.11c30.065 25.594 49.011 63.473 49.011 105.776 0 9.31-0.918 18.407-2.668 27.203l0.146-0.883c-9.094 49.321-44.147 88.668-90.188 103.769l-0.948 0.269c-11.129 3.517-23.927 5.543-37.199 5.543-37.089 0-70.481-15.825-93.794-41.091l-0.080-0.087-696.934-663.142-696.934 663.142c-23.392 25.353-56.785 41.178-93.873 41.178-13.272 0-26.070-2.026-38.102-5.786l0.904 0.243c-46.989-15.371-82.042-54.717-91.009-103.212l-0.127-0.826c-1.603-7.913-2.521-17.009-2.521-26.32 0-42.304 18.946-80.182 48.815-105.614l0.196-0.163 784.589-747.11c25.805-24.576 60.006-36.864 95.027-35.021z" />
<glyph unicode="&#xe907;" glyph-name="dashboard" d="M601.372 228.58c31.419 0 56.889-25.47 56.889-56.889v0-178.802c0-31.419-25.47-56.889-56.889-56.889v0h-544.484c-31.419 0-56.889 25.47-56.889 56.889v0 178.802c0 31.419 25.47 56.889 56.889 56.889v0h544.484zM967.111 594.204c31.419 0 56.889-25.47 56.889-56.889v0-544.427c0-31.419-25.47-56.889-56.889-56.889v0h-178.802c-31.419 0-56.889 25.47-56.889 56.889v0 544.484c0 31.419 25.47 56.889 56.889 56.889v0h178.802zM235.691 960c31.419 0 56.889-25.47 56.889-56.889v0-544.484c0-31.419-25.47-56.889-56.889-56.889v0h-178.802c-31.419 0-56.889 25.47-56.889 56.889v0 544.484c0 31.419 25.47 56.889 56.889 56.889v0h178.802zM601.372 594.261c31.419 0 56.889-25.47 56.889-56.889v0-178.745c0-31.419-25.47-56.889-56.889-56.889v0h-178.688c-31.419 0-56.889 25.47-56.889 56.889v0 178.688c0 31.419 25.47 56.889 56.889 56.889v0h178.745zM967.111 960c31.419 0 56.889-25.47 56.889-56.889v0-178.802c0-31.419-25.47-56.889-56.889-56.889v0h-544.484c-31.419 0-56.889 25.47-56.889 56.889v0 178.802c0 31.419 25.47 56.889 56.889 56.889v0h544.484z" />
<glyph unicode="&#xe908;" glyph-name="dollar" d="M512 951.467c-278.057 0-503.467-225.41-503.467-503.467s225.41-503.467 503.467-503.467v0c278.057 0 503.467 225.41 503.467 503.467s-225.41 503.467-503.467 503.467v0zM578.446 158.094h-15.758v-76.572c0-22.187-18.944-40.277-42.268-40.277s-42.325 18.034-42.325 40.277v76.572h-108.203c-23.324 0-42.268 18.034-42.268 40.277s18.944 40.277 42.268 40.277h207.701c46.649 0 84.537 36.124 84.537 80.612s-37.831 80.612-84.537 80.612h-115.484c-93.412 0-169.131 72.135-169.131 161.166 0 88.974 75.662 161.166 169.074 161.166h15.929v75.207c0 14.393 8.078 27.705 21.163 34.873 6.102 3.396 13.385 5.396 21.134 5.396s15.032-1.999 21.36-5.51l-0.226 0.115c13.084-7.168 21.106-20.48 21.106-34.873v-75.207h104.277c23.324 0 42.268-18.034 42.268-40.334 0-22.187-18.944-40.277-42.268-40.277h-203.776c-46.649 0-84.537-36.068-84.537-80.555 0-44.544 37.888-80.612 84.537-80.612h115.996c93.355 0 169.074-72.135 169.074-161.166s-75.662-161.166-169.074-161.166h-0.569z" />
<glyph unicode="&#xe909;" glyph-name="gear" horiz-adv-x="967" d="M783.815 508.871l85.276 64.284c6.119 4.682 10.027 11.987 10.027 20.206 0 4.529-1.187 8.781-3.266 12.461l0.066-0.127-54.044 89.941c-5.039 7.483-13.479 12.34-23.054 12.34-3.49 0-6.828-0.645-9.904-1.823l0.19 0.064-100.636-38.798c-30.747 26.587-67.308 47.405-107.433 60.264l-2.192 0.607-15.36 103.026c-2.293 12.455-12.966 21.8-25.862 22.016h-108.112c-12.942-0.188-23.644-9.542-25.916-21.851l-0.025-0.165-15.36-103.026c-42.295-13.473-78.837-34.29-109.961-61.204l0.393 0.333-100.636 38.798c-2.886 1.114-6.224 1.759-9.714 1.759-9.575 0-18.015-4.857-22.991-12.242l-0.063-0.099-54.044-89.941c-2.027-3.564-3.222-7.83-3.222-12.375 0-8.228 3.917-15.542 9.988-20.178l0.061-0.045 85.276-64.284c-4.175-18.277-6.568-39.266-6.568-60.814s2.393-42.537 6.927-62.716l-0.359 1.902-85.276-64.341c-6.132-4.681-10.049-11.994-10.049-20.223 0-4.545 1.195-8.811 3.288-12.501l-0.066 0.126 54.044-89.941c6.258-10.411 20.878-15.189 32.768-10.581l100.636 38.798c30.747-26.587 67.308-47.405 107.433-60.264l2.192-0.607 15.36-103.026c2.293-12.455 12.966-21.8 25.862-22.016h108.112c12.942 0.188 23.644 9.542 25.916 21.851l0.025 0.165 15.36 103.026c42.295 13.473 78.837 34.29 109.961 61.204l-0.393-0.333 100.636-38.798c2.886-1.114 6.224-1.759 9.714-1.759 9.575 0 18.015 4.857 22.991 12.242l0.063 0.099 54.044 89.941c2.027 3.564 3.222 7.83 3.222 12.375 0 8.228-3.917 15.542-9.988 20.178l-0.061 0.045-85.276 64.284c4.175 18.277 6.568 39.266 6.568 60.814s-2.393 42.537-6.927 62.716l0.359-1.902zM860.729 448c0-10.524-0.455-20.935-1.422-31.289l52.907-39.936c37.66-28.444 48.64-80.612 24.462-120.832l-54.044-89.998c-24.007-39.936-75.662-56.491-119.467-39.595l-63.147 24.348c-16.447-11.292-35.283-21.964-55.025-30.998l-2.376-0.974-9.444-63.829c-6.827-45.625-47.957-80.498-95.573-80.498h-108.089c-47.73 0-88.747 34.93-95.573 80.498l-9.444 63.829c-22.14 10.005-40.995 20.677-58.768 32.817l1.311-0.845-63.033-24.348c-43.918-16.953-95.573-0.284-119.467 39.595l-54.101 89.998c-24.235 40.277-13.198 92.444 24.462 120.832l52.907 39.879c-0.887 9.393-1.393 20.31-1.393 31.346s0.506 21.953 1.496 32.731l-0.103-1.385-52.907 39.822c-37.66 28.444-48.697 80.612-24.462 120.889l54.044 89.998c23.95 39.822 75.605 56.548 119.467 39.595l63.147-24.348c16.447 11.292 35.283 21.964 55.025 30.998l2.376 0.974 9.444 63.829c6.827 45.511 47.787 80.498 95.573 80.498h108.089c47.616 0 88.747-34.873 95.573-80.498l9.444-63.829c20.082-9.045 39.31-19.684 57.458-31.972l63.033 24.348c43.861 16.896 95.573 0.341 119.524-39.595l54.044-89.998c24.178-40.22 13.198-92.444-24.462-120.832l-52.907-39.879c0.967-10.411 1.422-20.821 1.422-31.346zM483.556 320c72.818 0 131.868 57.287 131.868 128s-59.051 128-131.868 128-131.868-57.287-131.868-128 59.051-128 131.868-128zM483.556 251.733c-111.673 0-202.24 87.893-202.24 196.267s90.567 196.267 202.24 196.267 202.24-87.893 202.24-196.267c0-108.373-90.567-196.267-202.24-196.267z" />
<glyph unicode="&#xe90a;" glyph-name="help" d="M512 950.67c-277.617 0-502.67-225.053-502.67-502.67s225.053-502.67 502.67-502.67v0c277.617 0 502.67 225.053 502.67 502.67s-225.053 502.67-502.67 502.67v0zM561.664 210.603h-94.663v93.127h96.199l-1.536-93.127zM653.198 479.004c-13.567-16.471-28.864-30.775-45.815-42.916l-0.72-0.49-23.324-18.603c-11.49-8.414-20.148-20.087-24.664-33.651l-0.139-0.482c-2.966-10.805-4.67-23.211-4.67-36.015 0-0.439 0.002-0.877 0.006-1.314v0.067h-85.333c-0.003 0.419-0.004 0.914-0.004 1.41 0 26.084 3.973 51.24 11.348 74.895l-0.478-1.781c10.24 19.342 25.202 35.84 43.463 48.071l23.268 18.603c7.168 5.12 13.426 11.435 18.603 18.603 8.192 11.264 12.516 24.86 12.402 38.798 0.010 0.454 0.016 0.989 0.016 1.525 0 16.296-5.23 31.369-14.103 43.635l0.15-0.218c-9.33 13.483-26.396 20.196-51.2 20.196-1.586 0.155-3.428 0.244-5.291 0.244-19.626 0-36.954-9.84-47.319-24.855l-0.126-0.192c-10.012-15.246-15.36-32.996-15.531-51.2h-93.070c2.048 61.042 23.268 103.936 63.602 128.796 24.988 15.621 55.341 24.885 87.858 24.885 1.833 0 3.659-0.029 5.478-0.088l-0.265 0.007c2.227 0.089 4.842 0.139 7.468 0.139 41.792 0 80.593-12.81 112.689-34.718l-0.69 0.445c32.427-23.723 50.574-62.293 48.128-102.4 0.74-25.543-6.827-50.631-21.732-71.396z" />
<glyph unicode="&#xe90b;" glyph-name="home" horiz-adv-x="1081" d="M539.136 788.48l407.609-304.64v-483.84c0-35.84-28.388-64-64.512-64h-234.724v294.4h-216.747v-294.4h-234.667c-0.254-0.004-0.554-0.006-0.855-0.006-35.126 0-63.602 28.475-63.602 63.602 0 0.142 0 0.284 0.001 0.426v-0.022 483.84l407.552 304.64zM510.862 949.76c18.034 12.8 38.684 12.8 54.158 0l492.658-366.080c20.708-15.36 28.444-38.4 12.971-61.44-18.091-23.040-43.861-23.040-67.129-10.24l-446.236 335.36c-5.020 3.605-11.289 5.766-18.062 5.766s-13.043-2.16-18.156-5.829l0.093 0.064-448.91-335.36c-18.091-15.36-49.038-10.24-61.952 7.68-18.034 20.48-10.297 48.64 7.737 64z" />
<glyph unicode="&#xe90c;" glyph-name="inventory" horiz-adv-x="910" d="M728.178 661.333h-546.133v256h-125.156c-31.419 0-56.889-25.47-56.889-56.889v0-867.556c0-31.419 25.47-56.889 56.889-56.889v0h796.444c31.419 0 56.889 25.47 56.889 56.889v0 867.556c0 31.419-25.47 56.889-56.889 56.889v0h-125.156v-256zM649.842 448.74c9.757-7.779 15.955-19.664 15.955-32.997 0-11.589-4.683-22.084-12.259-29.696l0.002 0.002-175.502-176.697c-10.311-10.393-24.6-16.827-40.391-16.827-15.65 0-29.824 6.319-40.11 16.546l0.003-0.003-0.284 0.341-82.261 83.058c-7.281 7.339-11.781 17.447-11.781 28.606 0 12.978 6.087 24.535 15.562 31.971l0.088 0.067c8.643 6.78 19.676 10.873 31.664 10.873 14.311 0 27.26-5.833 36.599-15.25l48.644-49.099 143.929 144.953c9.547 9.618 22.774 15.572 37.392 15.572 12.427 0 23.849-4.303 32.858-11.5l-0.105 0.081zM455.111 960c33.564 0 62.578-17.294 78.393-42.667h103.652v-170.667h-364.089v170.667h103.652c15.815 25.372 44.828 42.667 78.393 42.667z" />
<glyph unicode="&#xe90d;" glyph-name="list" horiz-adv-x="904" d="M792.215 960c58.187 0 106.255-39.936 110.953-89.751l0.361-7.951v-830.404c0-50.658-44.936-91.377-101.798-95.533l-9.517-0.361h-680.9c-58.007 0-106.014 38.069-110.893 87.522l-0.422 8.373v830.404c0 50.718 45.176 93.244 102.219 97.4l9.096 0.301h680.9zM722.824 237.176h-361.412c-33.238-0.038-60.168-26.992-60.168-60.235 0-30.76 23.056-56.135 52.83-59.785l0.291-0.029 7.048-0.422h361.412c33.267 0 60.235 26.968 60.235 60.235s-26.968 60.235-60.235 60.235v0zM180.706 237.176c-33.267 0-60.235-26.968-60.235-60.235s26.968-60.235 60.235-60.235v0c33.267 0 60.235 26.968 60.235 60.235s-26.968 60.235-60.235 60.235v0zM722.824 417.882h-361.412c-33.238-0.038-60.168-26.992-60.168-60.235 0-30.76 23.056-56.135 52.83-59.785l0.291-0.029 7.048-0.422h361.412c33.267 0 60.235 26.968 60.235 60.235s-26.968 60.235-60.235 60.235v0zM180.706 417.882c-33.267 0-60.235-26.968-60.235-60.235s26.968-60.235 60.235-60.235v0c33.267 0 60.235 26.968 60.235 60.235s-26.968 60.235-60.235 60.235v0zM722.824 598.588h-361.412c-33.238-0.038-60.168-26.992-60.168-60.235 0-30.76 23.056-56.135 52.83-59.785l0.291-0.029 7.048-0.422h361.412c33.267 0 60.235 26.968 60.235 60.235s-26.968 60.235-60.235 60.235v0zM180.706 598.588c-33.267 0-60.235-26.968-60.235-60.235s26.968-60.235 60.235-60.235v0c33.267 0 60.235 26.968 60.235 60.235s-26.968 60.235-60.235 60.235v0zM722.824 779.294h-361.412c-33.238-0.038-60.168-26.992-60.168-60.235 0-30.76 23.056-56.135 52.83-59.785l0.291-0.029 7.048-0.422h361.412c33.267 0 60.235 26.968 60.235 60.235s-26.968 60.235-60.235 60.235v0zM180.706 779.294c-33.267 0-60.235-26.968-60.235-60.235s26.968-60.235 60.235-60.235v0c33.267 0 60.235 26.968 60.235 60.235s-26.968 60.235-60.235 60.235v0z" />
<glyph unicode="&#xe90e;" glyph-name="management" horiz-adv-x="1138" d="M861.298 122.197c-25.086 0.35-45.288 20.769-45.288 45.905 0 0.221 0.002 0.443 0.005 0.663v-0.033 228.068c0 1.82-2.958 4.551-7.509 4.551h-529.067c-4.437 0-7.396-2.731-7.396-4.551v-228.124c0.002-0.17 0.004-0.371 0.004-0.572 0-25.188-20.259-45.644-45.371-45.962h-0.030c-25.093 0.383-45.287 20.814-45.287 45.961 0 0.202 0.001 0.403 0.004 0.604v-0.031 228.124c0 53.874 43.975 97.678 98.133 97.678h529.067c54.044 0 98.133-43.804 98.133-97.678v-228.124c0.003-0.187 0.004-0.408 0.004-0.629 0-25.157-20.234-45.587-45.315-45.906h-0.030zM544.028 446.293c-25.093 0.382-45.288 20.813-45.288 45.961 0 0.222 0.002 0.443 0.005 0.664v-0.033 187.733c0 25.771 20.309 46.649 45.284 46.649 25.031 0 45.34-20.878 45.34-46.649v-187.733c0.003-0.188 0.004-0.409 0.004-0.631 0-25.148-20.195-45.579-45.252-45.961h-0.036zM407.893-64h-317.099c-50.062 0-90.795 41.813-90.795 93.241v92.786c0 51.428 40.732 93.298 90.795 93.298h317.099c50.119 0 90.852-41.87 90.852-93.298v-92.786c0-51.428-40.732-93.241-90.852-93.241zM90.795 122.197l-0.057-92.956 113.721-0.171v93.127h-113.721zM997.205-64h-317.042c-50.119 0-90.852 41.813-90.852 93.241v92.786c0 51.428 40.732 93.298 90.852 93.298h317.042c50.062 0 90.795-41.87 90.795-93.298v-92.786c0-51.428-40.732-93.241-90.795-93.241zM680.050 122.197v-92.956l113.664-0.171 0.057 92.956v0.171h-113.721zM725.22 680.732h-362.382c-50.119 0-90.852 41.813-90.852 93.241v92.729c0 51.484 40.732 93.298 90.795 93.298h362.382c50.119 0 90.852-41.813 90.852-93.241v-92.786c0-51.428-40.732-93.298-90.795-93.298zM362.724 866.93l-0.057-92.956 113.778-0.171v93.127h-113.778z" />
<glyph unicode="&#xe90f;" glyph-name="pop" horiz-adv-x="1078" d="M916.211 313.263h-754.526c-89.142 0-161.684-74.483-161.684-165.942v-8.515c0-91.459 72.542-165.942 161.684-165.942h754.526c89.142 0 161.684 74.483 161.684 165.996v8.461c0 91.459-72.542 165.942-161.684 165.942zM198.548 86.366c-46.749 0.57-84.499 38.301-85.099 84.989l-0.001 0.057c-0.001 0.161-0.002 0.351-0.002 0.541 0 46.731 37.883 84.615 84.615 84.615 0.19 0 0.38-0.001 0.57-0.002h-0.029c46.134 0 85.046-38.912 85.046-85.154 0-46.188-38.912-85.1-85.1-85.1zM425.445 86.366c-46.726 0.6-84.446 38.32-85.045 84.989l-0.001 0.057c0 46.242 38.912 85.154 85.1 85.154s85.1-38.912 85.1-85.154c0-46.188-38.912-85.1-85.154-85.1zM652.396 86.366c-46.749 0.57-84.499 38.301-85.099 84.989l-0.001 0.057c0 46.242 38.912 85.154 85.154 85.154 46.134 0 85.046-38.912 85.046-85.154 0.001-0.144 0.001-0.315 0.001-0.486 0-46.731-37.883-84.615-84.615-84.615-0.171 0-0.342 0.001-0.513 0.002h0.026zM879.293 256.512c46.242 0 85.154-38.858 85.154-85.1 0-46.188-38.912-85.1-85.154-85.1-46.764 0.601-84.506 38.381-85.045 85.102v0.051c0 46.188 38.912 85.046 85.1 85.046zM490.011 949.868v-121.802c0-12.18 7.923-20.318 19.833-20.318h45.272c11.911 0 19.833 8.084 19.833 20.318v121.802h278.42c9.917 0 19.833-8.138 19.833-20.318v-507.473c0-10.186-9.917-20.318-19.833-20.318h-649.755c-9.917 0-19.833 10.132-19.833 20.318v507.473c0 10.132 9.917 20.318 19.833 20.318h286.343z" />
<glyph unicode="&#xe910;" glyph-name="production" d="M900.039 148.309c-24.275-36.28-54.804-66.374-90.323-89.432l-1.211-0.737 23.723-56.775c5.12-13.369 0-30.094-15.246-35.1l-69.461-28.388c-13.596-5.006-30.549 0-35.612 15.019l-23.723 56.775c-19.618-3.983-42.169-6.263-65.252-6.263s-45.633 2.28-67.438 6.627l2.186-0.363-23.78-56.775c-5.063-13.369-22.016-20.025-35.556-15.019l-69.518 28.444c-13.54 4.949-20.309 21.618-15.246 35.044l23.723 56.775c-35.612 23.324-67.812 53.476-91.534 90.169l-57.628-23.324c-13.54-5.063-30.492 0-35.612 14.962l-28.786 66.844c-5.12 13.312 0 30.037 15.246 35.044l57.628 23.381c-4.32 18.417-6.797 39.564-6.797 61.29 0 10.775 0.609 21.409 1.795 31.867l-0.118-1.281c44.089 0 81.351 31.744 88.178 73.5 0 0 1.707 0 1.707 1.65 20.309-15.019 45.739-20.025 69.518-15.019-25.429-48.469-28.843-105.244-6.827-160.37 40.676-96.825 154.283-143.588 254.293-103.538 70.719 29.192 119.582 97.608 119.582 177.436 0 26.372-5.333 51.499-14.979 74.36l0.471-1.258c-40.676 96.882-154.226 143.644-254.293 103.538h-1.707c1.707 6.656 3.413 15.019 3.413 23.381 0 18.375-6.77 36.75-16.953 51.769 0 0 0 1.707 1.707 1.707 38.905 5.587 69.262 36.118 74.53 74.639l0.051 0.454c27.136 1.707 52.565-1.65 77.938-6.656l23.78 56.775c5.12 13.369 22.016 20.082 35.612 15.076l69.461-28.444c13.596-5.006 20.366-21.675 15.246-35.044l-23.723-56.775c35.612-23.381 67.812-53.476 91.591-90.226l57.572 23.381c13.596 5.063 30.549 0 35.612-15.019l28.786-68.437c5.12-13.369 0-30.094-15.246-35.1l-57.628-23.324c4.044-19.335 6.36-41.554 6.36-64.313s-2.315-44.978-6.724-66.433l0.364 2.12 57.628-23.381c13.596-5.063 20.366-21.732 15.246-35.1l-28.786-68.494c-5.12-13.369-22.016-20.025-35.612-15.019l-57.628 23.381zM66.105 547.556l25.429 25.031c-14.832 21.934-26.007 47.677-31.941 75.364l-0.258 1.436h-35.612c-0.221-0.008-0.481-0.012-0.742-0.012-12.693 0-22.983 10.29-22.983 22.983 0 0.124 0.001 0.248 0.003 0.372v-0.019 38.457c0 13.369 10.183 23.324 23.723 23.324h35.612c5.12 26.738 16.953 53.476 32.199 76.857l-25.429 25.031c-3.937 4.118-6.361 9.712-6.361 15.872s2.423 11.754 6.369 15.881l-0.008-0.009 27.136 26.738c4.226 3.88 9.885 6.259 16.1 6.259s11.874-2.378 16.117-6.274l-0.017 0.016 25.429-25.031c23.723 15.019 50.859 26.738 77.938 31.687v35.157c0 13.369 10.24 23.381 23.723 23.381h39.026c13.54 0 23.723-10.012 23.723-23.381v-35.1c27.136-5.006 54.215-16.668 77.938-31.687l25.429 25.031c4.23 3.896 9.9 6.285 16.128 6.285s11.898-2.389 16.145-6.3l-0.017 0.015 27.079-26.738c3.921-4.115 6.334-9.697 6.334-15.844s-2.413-11.729-6.342-15.853l0.009 0.009-25.429-25.031c15.246-23.438 27.136-50.176 32.199-76.857h35.612c13.54 0 23.723-10.012 23.723-23.381v-38.457c0.002-0.105 0.003-0.229 0.003-0.353 0-12.693-10.29-22.983-22.983-22.983-0.261 0-0.521 0.004-0.78 0.013l0.038-0.001h-35.612c-5.063-26.738-16.953-53.476-32.199-76.857l25.429-25.031c3.937-4.118 6.361-9.712 6.361-15.872s-2.423-11.754-6.369-15.881l0.008 0.009-27.079-26.738c-4.23-3.896-9.9-6.285-16.128-6.285s-11.898 2.389-16.145 6.3l0.017-0.015-25.429 25.031c-23.723-15.019-50.802-26.738-77.938-31.687v-35.1c0.002-0.105 0.003-0.229 0.003-0.353 0-12.693-10.29-22.983-22.983-22.983-0.261 0-0.521 0.004-0.78 0.013l0.038-0.001h-39.026c-0.221-0.008-0.481-0.012-0.742-0.012-12.693 0-22.983 10.29-22.983 22.983 0 0.124 0.001 0.248 0.003 0.372v-0.019 35.1c-29.496 6.059-55.627 17.064-78.801 32.217l0.863-0.53-25.429-25.031c-4.226-3.88-9.885-6.259-16.1-6.259s-11.874 2.378-16.117 6.274l0.017-0.016-27.136 26.738c-4.673 3.753-7.639 9.466-7.639 15.872s2.966 12.119 7.599 15.841l0.040 0.031zM198.315 619.236c18.684-18.577 44.438-30.059 72.875-30.059s54.191 11.483 72.88 30.064l-0.005-0.005c18.825 18.174 30.514 43.633 30.514 71.822s-11.689 53.648-30.485 71.794l-0.029 0.028c-18.684 18.577-44.438 30.059-72.875 30.059s-54.191-11.483-72.88-30.064l0.005 0.005c-18.456-18.346-29.879-43.75-29.879-71.822s11.423-53.476 29.874-71.817l0.005-0.005zM669.525 218.396c62.748 25.031 93.241 96.882 66.105 158.72-25.429 61.724-98.304 90.112-160.996 65.081-62.748-25.031-91.591-96.882-66.105-158.663 20.406-43.935 64.155-73.854 114.892-73.854 16.593 0 32.439 3.2 46.954 9.017l-0.851-0.301z" />
<glyph unicode="&#xe911;" glyph-name="products" d="M22.357 674.588l432.469-151.836c16.1-5.689 27.477-19.911 29.81-36.58l0.398-6.315v-521.102c0-0.039 0-0.084 0-0.13 0-12.473-10.112-22.585-22.585-22.585-1.023 0-2.030 0.068-3.017 0.2l0.116-0.013-4.38 1.024-408.804 143.474c-25.019 9.089-43.119 31.416-45.941 58.294l-0.026 0.302-0.398 7.339v511.829c0.002 8.743 6.577 15.949 15.052 16.945l0.080 0.008h3.584zM1001.643 674.588c1.628 0.575 3.506 0.907 5.462 0.907 9.331 0 16.896-7.565 16.896-16.896 0-0.039 0-0.078 0-0.117v0.006-511.829c0-29.753-18.546-56.206-46.364-65.991l-408.804-143.36c-2.187-0.779-4.711-1.229-7.339-1.229-12.442 0-22.528 10.086-22.528 22.528 0 0.032 0 0.064 0 0.096v-0.005 521.273c0 19.342 11.947 36.523 30.094 42.894zM228.921 845.653l5.291-1.593 455.68-189.326c12.971-5.291 14.165-25.145 3.755-33.28l-3.868-2.219-131.812-53.305c-6.256-2.606-13.524-4.12-21.145-4.12-5.082 0-10.007 0.673-14.691 1.935l0.394-0.090-6.884 2.276-450.844 182.613c-13.084 5.348-14.393 25.202-3.982 33.28l3.982 2.276 147.968 60.075c3.115 1.288 6.732 2.036 10.523 2.036 1.974 0 3.9-0.203 5.759-0.588l-0.183 0.032zM489.415 960c4.836 0 9.728-0.569 14.507-1.877l7.111-2.389 448.284-181.703c12.914-5.177 14.222-24.917 3.925-33.109l-3.868-2.276-150.756-61.042c-3.098-1.282-6.697-2.027-10.469-2.027-1.952 0-3.858 0.2-5.698 0.579l0.181-0.031-5.291 1.593-453.404 188.587c-12.743 5.291-13.938 24.974-3.698 33.109l3.868 2.276 133.689 54.044c7.054 2.844 14.336 4.267 21.618 4.267z" />
<glyph unicode="&#xe912;" glyph-name="suppliers" d="M0-49.778h282.51v282.567h-282.51v-282.51zM648.135 232.789v-282.51h-282.51v282.51h282.51zM1017.401 232.789v-282.51h-282.51v282.51h282.51zM247.808 198.087v-91.25h-110.194v91.25h110.194zM613.433 198.087h-110.194v-91.25h110.194v91.25zM982.699 198.087h-110.194v-91.25h110.194v91.25zM282.51 596.309v-282.567h-282.51v282.51h282.51zM648.135 596.309v-282.567h-282.51v282.51h282.51zM247.808 573.156h-110.194v-102.798h110.194v102.798zM613.433 561.607h-110.194v-91.25h110.194v91.25zM282.51 960v-282.51h-282.51v282.51h282.51zM247.808 925.298h-110.194v-91.25h110.194v91.25z" />
<glyph unicode="&#xe913;" glyph-name="team" horiz-adv-x="910" d="M404.537 396.8c53.134 0 96.597-41.244 100.807-93.98l0.341-8.363v-274.375c0.004-0.227 0.006-0.495 0.006-0.764 0-20.289-11.933-37.79-29.164-45.868l-0.31-0.131c-115.257-49.778-331.492-49.778-446.748 0-15.78 7.377-26.959 22.262-28.992 39.931l-0.022 0.233-0.455 6.599v274.375c-0.001 0.186-0.002 0.405-0.002 0.625 0 53.076 40.606 96.668 92.447 101.405l0.397 0.029 8.306 0.284h303.332zM809.074 550.4c55.979 0 101.148-45.739 101.148-102.4v-274.318c0.004-0.227 0.006-0.495 0.006-0.764 0-20.289-11.933-37.79-29.164-45.868l-0.31-0.131c-69.461-30.037-175.388-41.529-273.92-35.442v202.923c0.001 0.184 0.001 0.402 0.001 0.62 0 107.215-83.010 195.043-188.266 202.719l-0.663 0.039c17.294 31.232 49.948 52.565 87.78 52.565zM252.814 806.4c83.797 0 151.723-68.779 151.723-153.6 0-84.764-67.925-153.6-151.723-153.6-83.74 0-151.666 68.836-151.666 153.6 0 84.821 67.925 153.6 151.666 153.6zM657.408 960c83.74 0 151.666-68.779 151.666-153.6s-67.925-153.6-151.666-153.6c-83.797 0-151.723 68.779-151.723 153.6s67.925 153.6 151.723 153.6z" />
<glyph unicode="&#xe914;" glyph-name="truck" horiz-adv-x="1195" d="M17.636 717.312h127.602l27.876-530.66c0.455-9.557 8.192-17.067 17.522-17.067h149.845c-27.464-24.686-44.658-60.328-44.658-99.985 0-0.089 0-0.178 0-0.267v0.014c0-73.557 58.482-133.348 130.332-133.348s130.332 59.79 130.332 133.348c0 0.075 0 0.164 0 0.253 0 39.658-17.194 75.299-44.535 99.876l-0.123 0.109h406.244c-27.464-24.686-44.658-60.328-44.658-99.985 0-0.089 0-0.178 0-0.267v0.014c0-73.557 58.482-133.348 130.332-133.348 71.908 0 130.332 59.79 130.332 133.348 0 39.993-17.351 75.776-44.658 100.238h87.609c9.728 0 17.636 8.078 17.636 18.034v36.011c0.001 0.068 0.001 0.148 0.001 0.228 0 9.775-7.876 17.71-17.628 17.805h-936.4l-27.705 530.603c-0.377 9.489-8.149 17.042-17.69 17.067h-177.609c-9.671 0-17.636-8.078-17.636-18.034v-36.011c0-9.956 7.851-17.977 17.636-17.977zM1003.748 130.674c33.052 0 59.904-27.534 59.904-61.326s-26.852-61.326-59.904-61.326c-32.996 0-59.904 27.534-59.904 61.326s26.908 61.326 59.904 61.326zM426.155 130.674c32.996 0 59.904-27.534 59.904-61.326 0-16.327-6.258-31.744-17.579-43.349s-26.396-17.977-42.382-17.977c-32.996 0-59.904 27.477-59.904 61.326 0 33.792 26.908 61.326 59.961 61.326zM568.889 504.889v-170.667h-170.667v170.667h170.667zM796.444 504.889v-170.667h-170.667v170.667h170.667zM1024 504.889v-170.667h-170.667v170.667h170.667zM568.889 732.444v-170.667h-170.667v170.667h170.667zM796.444 732.444v-170.667h-170.667v170.667h170.667zM1024 732.444v-170.667h-170.667v170.667h170.667zM1024 960v-170.667h-170.667v170.667h170.667zM568.889 960v-170.667h-170.667v170.667h170.667zM796.444 960v-170.667h-170.667v170.667h170.667z" />
<glyph unicode="&#xe915;" glyph-name="warehouse" d="M512 960l512-284.444v-739.556h-204.8v625.778h-614.4v-625.778h-204.8v739.556l512 284.444zM398.222 49.778v-113.778h-113.778v113.778h113.778zM568.889 49.778v-113.778h-113.778v113.778h113.778zM739.556 49.778v-113.778h-113.778v113.778h113.778zM398.222 220.444v-113.778h-113.778v113.778h113.778zM568.889 220.444v-113.778h-113.778v113.778h113.778zM739.556 220.444v-113.778h-113.778v113.778h113.778zM398.222 391.111v-113.778h-113.778v113.778h113.778zM568.889 391.111v-113.778h-113.778v113.778h113.778z" />
</font>
</defs>
</svg>
